<?xml version="1.0" standalone="no"?>
<!DOCTYPE svg PUBLIC "-//W3C//DTD SVG 20010904//EN"
 "http://www.w3.org/TR/2001/REC-SVG-20010904/DTD/svg10.dtd">
<svg version="1.0" xmlns="http://www.w3.org/2000/svg"
 width="260.000000pt" height="260.000000pt" viewBox="0 0 260.000000 260.000000"
 preserveAspectRatio="xMidYMid meet">
<metadata>
Created by potrace 1.14, written by Peter Selinger 2001-2017
</metadata>
<g transform="translate(0.000000,260.000000) scale(0.100000,-0.100000)"
fill="#000000" stroke="none">
<path d="M0 1300 l0 -1300 1300 0 1300 0 0 1300 0 1300 -1300 0 -1300 0 0
-1300z m1540 1167 c241 -40 496 -146 673 -278 63 -48 66 -52 72 -102 4 -29 5
-209 3 -402 -4 -320 -6 -359 -27 -454 -105 -476 -375 -826 -805 -1041 -76 -39
-146 -70 -156 -70 -22 0 -218 96 -295 145 -324 206 -555 471 -643 738 -58 173
-62 223 -62 722 l0 453 63 40 c273 172 636 275 947 268 74 -2 178 -10 230 -19z"/>
<path d="M1108 2350 c-214 -25 -476 -116 -650 -226 l-39 -25 3 -457 c4 -436 5
-461 26 -537 27 -96 85 -221 143 -307 87 -127 260 -290 426 -400 85 -56 259
-148 280 -148 25 0 231 108 311 162 99 68 262 231 330 331 100 145 172 322
213 525 21 100 22 131 20 447 -2 302 -4 342 -19 359 -30 32 -193 124 -307 171
-241 101 -479 135 -737 105z m232 -265 c18 -36 20 -54 14 -103 -6 -53 -4 -62
15 -81 38 -38 80 -23 104 37 12 31 25 43 57 56 43 17 74 21 68 8 -1 -4 -29
-56 -62 -116 l-58 -108 -62 9 c-54 7 -91 7 -259 0 l-39 -2 -58 105 c-33 58
-59 109 -60 114 0 10 44 0 88 -21 19 -9 32 -23 32 -34 0 -10 10 -30 23 -45 18
-21 29 -26 48 -21 50 14 54 21 54 109 0 70 3 88 23 115 28 40 45 35 72 -22z
m113 -367 c37 -11 67 -24 67 -29 0 -4 -33 -25 -72 -46 -40 -21 -90 -55 -111
-77 l-39 -38 -39 38 c-21 21 -69 54 -106 74 -37 19 -68 40 -70 47 -5 14 84 44
157 52 76 9 133 3 213 -21z m-335 -103 c44 -30 92 -69 106 -86 31 -36 35 -65
9 -54 -10 4 -42 11 -72 16 -108 17 -210 -27 -297 -130 -53 -63 -118 -121 -136
-121 -22 0 45 186 92 255 47 68 173 172 212 175 3 0 42 -25 86 -55z m521 14
c70 -47 133 -115 166 -179 31 -62 79 -199 72 -206 -12 -12 -74 37 -140 110
-77 86 -131 122 -203 135 -47 8 -130 2 -166 -14 -29 -12 -22 20 14 60 17 20
59 55 92 78 34 22 63 44 64 49 8 17 42 6 101 -33z m-635 -263 c-39 -86 -42
-141 -9 -214 31 -69 29 -78 -37 -150 -53 -58 -71 -104 -72 -185 l-1 -69 -28
34 c-39 45 -104 180 -122 253 -8 32 -15 88 -15 122 0 55 2 63 18 63 25 0 93
49 162 116 49 47 102 84 122 84 4 0 -4 -24 -18 -54z m609 37 c18 -9 59 -42 92
-73 71 -68 131 -110 156 -110 31 0 26 -118 -9 -224 -26 -76 -108 -226 -133
-241 -5 -4 -9 22 -9 62 0 83 -20 130 -84 202 -25 28 -46 60 -46 71 0 11 10 39
23 62 36 71 28 143 -31 261 -6 11 6 8 41 -10z m-428 -100 c28 -10 51 -18 53
-19 2 -1 0 -14 -4 -28 -5 -23 -9 -25 -22 -14 -8 7 -31 13 -51 14 -38 0 -105
40 -95 56 9 13 66 9 119 -9z m348 11 c3 -3 -8 -18 -25 -33 -25 -20 -41 -25
-74 -24 -31 1 -44 -3 -49 -15 -5 -14 -7 -14 -15 -2 -19 30 -10 45 38 61 48 17
114 24 125 13z m-173 -245 c67 -14 65 -38 -7 -88 -18 -12 -33 -28 -33 -36 0
-15 94 -65 123 -65 50 0 87 51 87 120 l0 42 53 -57 c74 -81 90 -114 95 -206
l5 -79 -61 -57 c-33 -32 -74 -66 -90 -75 l-29 -17 -7 60 c-8 81 -17 91 -32 38
-6 -24 -23 -70 -36 -102 -22 -54 -26 -58 -75 -74 -50 -16 -56 -16 -106 0 -52
16 -53 17 -85 91 -18 42 -32 90 -32 108 0 59 -22 14 -27 -56 -3 -36 -8 -66
-11 -66 -9 0 -74 52 -124 99 l-48 44 0 76 c1 93 15 127 93 212 l57 62 0 -51
c0 -40 5 -57 26 -81 31 -37 57 -39 119 -10 77 36 77 49 1 102 -35 24 -34 55 2
63 15 3 32 7 37 9 20 7 55 5 105 -6z"/>
<path d="M1243 885 c-53 -24 -58 -31 -47 -73 5 -15 12 -21 23 -17 11 3 25 -5
39 -25 28 -38 45 -38 78 -1 14 16 32 27 40 24 13 -5 34 32 34 58 0 8 -100 59
-113 59 -1 0 -26 -11 -54 -25z"/>
</g>
</svg>
